<svg id="Layer_1" enable-background="new 0 0 512 512" height="512" viewBox="0 0 512 512" width="512" xmlns="http://www.w3.org/2000/svg"><path d="m512 61v360c0 8.284-6.716 15-15 15h-482c-8.284 0-15-6.716-15-15v-150l256-210z" fill="#f2f6fc"/><path d="m512 61v360c0 8.284-6.716 15-15 15h-241v-375z" fill="#dce1eb"/><path d="m241 121h271v30h-271z" fill="#e63950"/><path d="m512 61v30h-256c-8.284 0-15-6.716-15-15 0-8.284 6.716-15 15-15z" fill="#e63950"/><path d="m241 181h271v30h-271z" fill="#e63950"/><path d="m0 301h512v30h-512z" fill="#ff637b"/><path d="m0 361h512v30h-512z" fill="#ff637b"/><path d="m0 421h512v30h-512z" fill="#ff637b"/><path d="m256 61h-256v180c0 8.284 6.716 15 15 15h241z" fill="#0082ff"/><g fill="#dce1eb"><path d="m53 173.5h30v30h-30z" transform="matrix(.707 .707 -.707 .707 153.206 7.127)"/><path d="m53 113.5h30v30h-30z" transform="matrix(.707 .707 -.707 .707 110.78 -10.447)"/><path d="m113 173.5h30v30h-30z" transform="matrix(.707 .707 -.707 .707 170.78 -35.299)"/><path d="m113 113.5h30v30h-30z" transform="matrix(.707 .707 -.707 .707 128.354 -52.873)"/><path d="m173 173.5h30v30h-30z" transform="matrix(.707 .707 -.707 .707 188.354 -77.726)"/><path d="m173 113.5h30v30h-30z" transform="matrix(.707 .707 -.707 .707 145.927 -95.299)"/></g><path d="m0 241h512v30h-512z" fill="#ff637b"/><path d="m256 241h256v30h-256z" fill="#e63950"/><path d="m256 301h256v30h-256z" fill="#e63950"/><path d="m256 361h256v30h-256z" fill="#e63950"/><path d="m256 421h256v30h-256z" fill="#e63950"/></svg>